<?xml version="1.0" encoding="UTF-8"?>
<svg width="174.31" height="174.31" version="1.1" xmlns="http://www.w3.org/2000/svg" xmlns:xlink="http://www.w3.org/1999/xlink">
 <defs>
  <linearGradient id="LinearGradient">
   <stop stop-color="#2d388a" offset="0"/>
   <stop stop-color="#00aeef" offset="1"/>
  </linearGradient>
  <linearGradient id="linearGradient31" x1="1.4064" x2="38.594" y1="1.4061" y2="1.4061" gradientUnits="userSpaceOnUse" xlink:href="#LinearGradient"/>
  <linearGradient id="linearGradient84" x1="1.4064" x2="38.594" y1="1.4061" y2="1.4061" gradientUnits="userSpaceOnUse" xlink:href="#LinearGradient"/>
 </defs>
 <g transform="matrix(4.6872 0 0 4.6872 -6.5921 -6.5907)" fill="url(#linearGradient84)">
  <path d="m17.344 32.656c-0.78125-0.15625-1.5105-0.3907-2.1876-0.7032-1.4584-0.67711-2.7344-1.6146-3.8281-2.8125-1.0416-1.0938-1.875-2.4479-2.5-4.0625-0.57289-1.6146-0.85938-3.2552-0.85938-4.9219v-0.39063c0-1.7188 0.28648-3.3854 0.85938-5 0.67711-1.6666 1.5105-2.9948 2.5001-3.9844 1.0416-1.1979 2.2916-2.1094 3.75-2.7344 0.88539-0.41664 1.6406-0.67703 2.2656-0.78117v-5.8594c-1.8229 0.26039-3.4375 0.70313-4.8438 1.3281-2.2916 0.98961-4.2448 2.3177-5.8594 3.9844s-2.8906 3.6458-3.8281 5.9374-1.4063 4.6875-1.4063 7.1875v0.39063c0 2.5521 0.46875 4.948 1.4063 7.1876 0.83336 2.2396 2.0834 4.1927 3.75 5.8594 1.6666 1.7188 3.6198 3.0469 5.8594 3.9844 1.4063 0.625 3.0469 1.0677 4.9219 1.3281v-5.9375zm21.25-12.656 7.6e-5 -0.23438c0-2.5521-0.46875-4.948-1.4063-7.1876-0.9375-2.2916-2.2135-4.2708-3.8281-5.9374-1.5625-1.6666-3.4896-2.9688-5.7813-3.9063-1.3021-0.625-2.8906-1.0677-4.7656-1.3281v5.9375l0.9375 0.3125c0.46875 0.15625 0.83336 0.28648 1.0938 0.39063 1.4584 0.67711 2.7344 1.6146 3.8281 2.8125 1.0416 1.0938 1.875 2.4479 2.5 4.0625 0.57289 1.6146 0.85938 3.2552 0.85938 4.9219v0.39063c0 1.7188-0.28648 3.3854-0.85938 5-0.67711 1.6666-1.5105 2.9948-2.5001 3.9844-1.0416 1.1979-2.2916 2.1094-3.75 2.7344-0.67711 0.3125-1.3802 0.54688-2.1094 0.70313v5.9375c1.5625-0.20836 3.125-0.65109 4.6875-1.3282 2.1354-0.88539 4.0885-2.2135 5.8594-3.9844 1.7188-1.8229 2.9948-3.802 3.8281-5.9374 0.9375-2.2916 1.4063-4.6875 1.4063-7.1875v-0.15625z" fill="url(#linearGradient84)"/>
 </g>
 <g transform="matrix(4.6872 0 0 4.6872 -6.5921 -6.5907)" fill="url(#linearGradient31)">
  <path d="m17.344 32.656c-0.78125-0.15625-1.5105-0.3907-2.1876-0.7032-1.4584-0.67711-2.7344-1.6146-3.8281-2.8125-1.0416-1.0938-1.875-2.4479-2.5-4.0625-0.57289-1.6146-0.85938-3.2552-0.85938-4.9219v-0.39063c0-1.7188 0.28648-3.3854 0.85938-5 0.67711-1.6666 1.5105-2.9948 2.5001-3.9844 1.0416-1.1979 2.2916-2.1094 3.75-2.7344 0.88539-0.41664 1.6406-0.67703 2.2656-0.78117v-5.8594c-1.8229 0.26039-3.4375 0.70313-4.8438 1.3281-2.2916 0.98961-4.2448 2.3177-5.8594 3.9844s-2.8906 3.6458-3.8281 5.9374-1.4063 4.6875-1.4063 7.1875v0.39063c0 2.5521 0.46875 4.948 1.4063 7.1876 0.83336 2.2396 2.0834 4.1927 3.75 5.8594 1.6666 1.7188 3.6198 3.0469 5.8594 3.9844 1.4063 0.625 3.0469 1.0677 4.9219 1.3281v-5.9375zm21.25-12.656 7.6e-5 -0.23438c0-2.5521-0.46875-4.948-1.4063-7.1876-0.9375-2.2916-2.2135-4.2708-3.8281-5.9374-1.5625-1.6666-3.4896-2.9688-5.7813-3.9063-1.3021-0.625-2.8906-1.0677-4.7656-1.3281v5.9375l0.9375 0.3125c0.46875 0.15625 0.83336 0.28648 1.0938 0.39063 1.4584 0.67711 2.7344 1.6146 3.8281 2.8125 1.0416 1.0938 1.875 2.4479 2.5 4.0625 0.57289 1.6146 0.85938 3.2552 0.85938 4.9219v0.39063c0 1.7188-0.28648 3.3854-0.85938 5-0.67711 1.6666-1.5105 2.9948-2.5001 3.9844-1.0416 1.1979-2.2916 2.1094-3.75 2.7344-0.67711 0.3125-1.3802 0.54688-2.1094 0.70313v5.9375c1.5625-0.20836 3.125-0.65109 4.6875-1.3282 2.1354-0.88539 4.0885-2.2135 5.8594-3.9844 1.7188-1.8229 2.9948-3.802 3.8281-5.9374 0.9375-2.2916 1.4063-4.6875 1.4063-7.1875v-0.15625z" fill="url(#linearGradient31)"/>
 </g>
</svg>
